<svg width="16" height="17" viewBox="0 0 16 17" fill="none" xmlns="http://www.w3.org/2000/svg">
<path fill-rule="evenodd" clip-rule="evenodd" d="M13.5337 0C13.7649 0 13.9543 0.188752 13.9543 0.420601V1.85759C13.9543 2.08884 13.7649 2.27839 13.5337 2.27839C13.3026 2.27839 13.1137 2.08884 13.1137 1.85759V0.420601C13.1137 0.188752 13.3026 0 13.5337 0ZM0 3.31752V14.3739C0 15.572 0.980272 16.5523 2.17823 16.5523H13.8212C15.0191 16.5523 16 15.572 16 14.3739V3.31752C16 2.24786 15.2185 1.35159 14.1981 1.17182V1.85759C14.1981 2.22352 13.8996 2.52201 13.5337 2.52201C13.1679 2.52201 12.8694 2.22352 12.8694 1.85759V1.13909H3.13056V1.85759C3.13056 2.22352 2.83207 2.52201 2.46574 2.52201C2.09981 2.52201 1.80132 2.22352 1.80132 1.85759V1.17182C0.781743 1.35159 0 2.24786 0 3.31752ZM0.908642 5.83055H15.0914V14.8459C15.0914 15.3617 14.6694 15.7837 14.1536 15.7837H1.84641C1.33084 15.7837 0.908642 15.3617 0.908642 14.8459V5.83055ZM2.46574 0C2.69759 0 2.88634 0.188752 2.88634 0.420601V1.85759C2.88634 2.08884 2.69759 2.27839 2.46574 2.27839C2.23449 2.27839 2.04574 2.08884 2.04574 1.85759V0.420601C2.04574 0.188752 2.23449 0 2.46574 0ZM10.6573 11.5985H12.8992V13.8401H10.6573V11.5985ZM6.89702 11.5985H9.13909V13.8401H6.89702V11.5985ZM3.16389 11.5985H5.40536V13.8401H3.16389V11.5985ZM10.6573 7.8735H12.8992V10.1158H10.6573V7.8735ZM6.89702 7.8735H9.13909V10.1158H6.89702V7.8735ZM3.16389 7.8735H5.40536V10.1158H3.16389V7.8735Z" fill="#8CC63F"/>
</svg>
