<svg width="24" height="24" viewBox="0 0 24 24" fill="none" xmlns="http://www.w3.org/2000/svg">
<path d="M12.7887 0C8.64933 0 5.05209 2.25289 3.13086 5.571C3.98655 5.58854 4.78994 5.9556 5.36625 6.56638C6.92041 4.08671 9.66255 2.44519 12.7887 2.44519C17.6263 2.44519 21.5558 6.37467 21.5558 11.1946C21.5558 14.338 19.8967 17.0973 17.4164 18.6342C17.853 19.036 18.1675 19.5597 18.3247 20.136C18.377 20.3806 18.4121 20.625 18.4296 20.8696C21.765 18.9311 24.0004 15.3161 24.0004 11.1946C24.0004 5.02977 18.9712 0 12.7887 0Z" fill="#8CC63F"/>
<path d="M17.3796 7.63204C16.8997 7.19492 16.1224 7.19492 15.6426 7.63204L12.0937 10.864L10.4439 9.36173C9.96526 8.92462 9.1865 8.92462 8.70755 9.36173C8.22769 9.79831 8.22769 10.5069 8.70755 10.9437L11.2254 13.2373C11.4648 13.4557 11.7793 13.5651 12.0937 13.5651C12.4081 13.5651 12.7226 13.4557 12.962 13.2376L17.3793 9.21376C17.8588 8.77719 17.8588 8.06861 17.3796 7.63204Z" fill="#8CC63F"/>
<path d="M16.0862 19.4222L12.6743 17.6608C12.1927 17.412 11.6016 17.5412 11.2682 17.968L10.0154 19.5719C8.79667 18.9135 7.87096 18.2893 6.79535 17.2152C5.64801 16.0695 5.03994 15.1279 4.41079 13.9439L5.99903 12.7061C6.42676 12.3731 6.55557 11.7831 6.30673 11.3022L4.55161 7.91304C4.24275 7.31695 3.4842 7.12137 2.9259 7.49352L0.752719 8.94035C0.248874 9.27597 -0.0368626 9.85452 0.00383145 10.4582C0.0454038 11.0759 0.122693 11.8542 0.264683 12.3974C0.897344 14.8285 2.41854 17.3357 4.54693 19.4608C6.67356 21.585 9.18546 23.1052 11.6201 23.7366C12.1658 23.879 12.9475 23.9553 13.5693 23.9962C14.1823 24.0363 14.7685 23.7413 15.1004 23.2256L16.516 21.031C16.8758 20.4732 16.6764 19.7271 16.0862 19.4222Z" fill="#8CC63F"/>
</svg>
