<svg width="26" height="26" viewBox="0 0 26 26" fill="none" xmlns="http://www.w3.org/2000/svg">
<path fill-rule="evenodd" clip-rule="evenodd" d="M10.5919 22.75H15.4068C18.7879 22.75 20.4784 22.75 21.6928 21.9533C22.2186 21.6084 22.67 21.1652 23.0212 20.6491C23.8327 19.4567 23.8327 17.7969 23.8327 14.4773C23.8327 11.1576 23.8327 9.49782 23.0212 8.30549C22.67 7.78931 22.2186 7.34613 21.6928 7.00123C20.9125 6.48931 19.9356 6.30633 18.4399 6.24093C17.7261 6.24093 17.1116 5.7099 16.9716 5.02273C16.7616 3.99196 15.8398 3.25 14.7691 3.25H11.2296C10.1589 3.25 9.2371 3.99196 9.02713 5.02273C8.88715 5.7099 8.27261 6.24093 7.55884 6.24093C6.06313 6.30633 5.0862 6.48931 4.30586 7.00123C3.78013 7.34613 3.32874 7.78931 2.97746 8.30549C2.16602 9.49782 2.16602 11.1576 2.16602 14.4773C2.16602 17.7969 2.16602 19.4567 2.97746 20.6491C3.32874 21.1652 3.78013 21.6084 4.30586 21.9533C5.52027 22.75 7.21083 22.75 10.5919 22.75ZM12.9993 10.0455C10.5064 10.0455 8.48546 12.0296 8.48546 14.4773C8.48546 16.9249 10.5064 18.9091 12.9993 18.9091C15.4923 18.9091 17.5132 16.9249 17.5132 14.4773C17.5132 12.0296 15.4923 10.0455 12.9993 10.0455ZM12.9993 11.8182C11.5036 11.8182 10.291 13.0087 10.291 14.4773C10.291 15.9458 11.5036 17.1364 12.9993 17.1364C14.4951 17.1364 15.7077 15.9458 15.7077 14.4773C15.7077 13.0087 14.4951 11.8182 12.9993 11.8182ZM18.1151 10.9318C18.1151 10.4423 18.5193 10.0455 19.0179 10.0455H20.2216C20.7202 10.0455 21.1243 10.4423 21.1243 10.9318C21.1243 11.4213 20.7202 11.8182 20.2216 11.8182H19.0179C18.5193 11.8182 18.1151 11.4213 18.1151 10.9318Z" fill="white"/>
</svg>
