<svg width="20" height="17" viewBox="0 0 20 17" fill="none" xmlns="http://www.w3.org/2000/svg">
<path d="M4.74828 12.9798V14.5684C4.74828 15.4381 4.04829 16.1463 3.17927 16.1463C2.31266 16.1463 1.61291 15.4381 1.61291 14.5684V12.9798H0.0205078V7.82838C0.0205078 6.70353 0.775234 5.76072 1.80026 5.47692L3.64247 1.09661C3.90265 0.453288 4.53777 -0.00244141 5.27659 -0.00244141H14.6988C15.4406 -0.00244141 16.0728 0.453288 16.3409 1.09661L18.1805 5.47692C19.2137 5.76072 19.9682 6.70353 19.9682 7.82838V12.9793H18.3654V14.5679C18.3654 15.4376 17.6678 16.1458 16.7962 16.1458C15.9271 16.1458 15.2272 15.4376 15.2272 14.5679V12.9793H4.74828V12.9798ZM3.14286 9.74028C3.86913 9.74028 4.45458 9.1541 4.45458 8.42252C4.45458 7.69842 3.86913 7.10766 3.14286 7.10766C2.41948 7.10766 1.82365 7.69842 1.82365 8.42252C1.82365 9.1541 2.41948 9.74028 3.14286 9.74028ZM18.0505 8.42252C18.0505 7.69842 17.4651 7.10766 16.7313 7.10766C16.0077 7.10766 15.4145 7.69842 15.4145 8.42252C15.4145 9.1541 16.0077 9.74028 16.7313 9.74028C17.4651 9.74028 18.0505 9.1541 18.0505 8.42252ZM16.5934 5.38577L15.0241 1.60997C14.9513 1.41466 14.7717 1.27649 14.5532 1.27649H5.42247C5.21172 1.27649 5.02461 1.41466 4.95926 1.60997L3.38254 5.38577H16.5934Z" fill="#8CC63F"/>
</svg>
