<svg width="94" height="67" viewBox="0 0 94 67" fill="none" xmlns="http://www.w3.org/2000/svg">
<path d="M3.88424 56C2.77368 56 1.72906 55.5418 0.984053 54.7239C0.185836 53.846 -0.149647 52.6754 0.0620546 51.5162C1.57867 43.1895 7.69255 23.3465 31.6287 19L32 20.9544C9.30865 25.0774 3.50133 43.9449 2.05991 51.8656C1.95811 52.4202 2.12122 52.9794 2.50067 53.4002C2.88127 53.8177 3.42614 54.0388 4.00108 54.0048L10.0895 53.6475L10.211 55.6336L4.12255 55.9909C4.04389 55.9966 3.96291 55.9966 3.88424 55.9966V56Z" fill="#8CC63F"/>
<path d="M51.9702 25.1035C51.6618 25.1035 51.3501 25.1191 51.0417 25.0975C50.7638 25.0795 50.6418 25.1694 50.6848 25.4783C50.713 25.6891 50.7096 25.9047 50.713 26.1179C50.7265 26.9574 50.3391 27.2149 49.6512 26.8161C48.3534 26.07 47.0623 25.3131 45.7679 24.5633C45.6154 24.4735 45.4482 24.4077 45.3093 24.3023C44.8699 23.9729 44.9015 23.3873 45.3861 23.1322C46.2265 22.689 46.9889 22.1094 47.8067 21.6303C48.4042 21.2794 48.9735 20.871 49.5541 20.4866C50.1573 20.0914 50.5684 20.3249 50.5967 21.0842C50.6113 21.4255 50.6249 21.7681 50.6305 22.107C50.6305 22.2842 50.6904 22.3741 50.8655 22.3645C51.6449 22.3322 52.4265 22.4363 53.1991 22.2926C55.0888 21.9357 56.023 19.7129 55.0436 17.9668C54.0384 16.1727 53.0726 14.3547 52.0775 12.5522C51.9532 12.3271 51.9679 12.2313 52.1995 12.1019C52.7688 11.7846 53.3211 11.4301 53.8768 11.0827C54.0948 10.945 54.1852 10.969 54.3298 11.2325C55.1284 12.7259 55.9586 14.2026 56.7798 15.6841C57.2835 16.5931 57.7963 17.4925 57.9353 18.5668C58.2301 20.8435 57.5185 22.6795 55.788 24.0591C54.6551 24.9622 53.3414 25.1514 51.9736 25.1011L51.9702 25.1035Z" fill="#8CC63F"/>
<path d="M48.461 2.03629C48.873 2.46504 49.0839 3.04249 49.3744 3.56045C49.5434 3.85909 49.7212 4.15649 49.8394 4.47991C49.9786 4.85165 50.1388 4.7773 50.3663 4.6001C50.5817 4.43282 50.8092 4.2804 51.0445 4.15029C51.4907 3.90494 51.8917 4.15401 51.9061 4.70667C51.9469 6.5778 51.9779 8.44645 51.9999 10.3176C52.0055 10.8764 51.6067 11.1652 51.1693 10.9012C49.6903 10.0103 48.2168 9.10072 46.7522 8.1825C46.3281 7.91609 46.3281 7.3721 46.7323 7.07098C47.0261 6.85041 47.3365 6.65834 47.6414 6.45388C47.7574 6.37581 47.8766 6.29527 47.7706 6.11188C47.3332 5.34608 47.0427 4.46999 46.4827 3.79713C45.1837 2.23208 43.1039 2.58896 42.1241 4.51708C41.2151 6.30518 40.2817 8.07346 39.3793 9.86528C39.2026 10.216 39.0579 10.2345 38.7729 10.0288C38.2438 9.65338 37.5435 9.16268 37.0001 8.812C36.9835 8.54929 38.953 5.08833 39.7394 3.4923C40.2762 2.4006 40.9522 1.47867 41.9021 0.810767C43.6948 -0.443259 46.359 -0.218972 47.8236 1.32006C48.0512 1.54683 48.2533 1.79837 48.4665 2.03629H48.461Z" fill="#8CC63F"/>
<path d="M31.6043 13.8125C32.8657 13.0637 34.1248 12.316 35.3875 11.5683C35.6573 11.4078 35.9236 11.2416 36.2016 11.0979C36.6641 10.8599 37.0975 11.0699 37.1185 11.5739C37.1804 13.2804 37.2295 14.9879 37.2587 16.6944C37.268 17.1861 36.8253 17.4286 36.3569 17.2141C36.0696 17.085 35.801 16.9166 35.5253 16.7617C35.2648 16.6158 35.0745 16.5821 34.9098 16.9133C34.6843 17.3691 34.3923 17.7934 34.1307 18.2358C32.9533 20.2408 34.2487 22.4086 36.6501 22.4221C38.5949 22.4333 40.542 22.4221 42.4867 22.3884C42.8967 22.3828 43.0112 22.4928 42.9936 22.8779C42.9644 23.4628 42.9843 24.0533 42.9995 24.6382C43.0053 24.8437 42.9644 24.9649 42.7098 24.9615C40.445 24.9335 38.1791 25.0828 35.9143 24.9301C34.7848 24.8549 33.7744 24.4193 32.9218 23.6795C32.7396 23.4707 32.5585 23.2607 32.3214 23.1024C31.1347 21.7676 30.7656 20.2374 31.1405 18.531C31.3636 17.5184 31.9792 16.6854 32.5001 15.8108C32.7875 15.3303 32.7875 15.3359 32.2654 15.0665C32.0376 14.9486 31.7911 14.8577 31.5984 14.6814C31.4255 14.3884 31.3368 14.0988 31.6007 13.8069L31.6043 13.8125Z" fill="#8CC63F"/>
<path d="M48 13.2698H45.0251L45.7738 6L41 14.7302H43.9749L43.2293 22L48 13.2698Z" fill="#FFF200"/>
<path d="M43.665 22L43.3263 21.8592L46.4536 14.1837H43L46.0663 6L46.4084 6.13164L43.5329 13.8105H47L43.665 22Z" fill="#231F20"/>
<path d="M8.32857 58C8.32857 58 6.50286 49.7101 11.4587 48.6901C11.5104 48.6788 11.6998 47.481 11.7205 47.3967C12.0052 46.2563 12.4002 45.1406 12.8722 44.061C14.4292 40.4924 16.8853 37.3321 19.9603 34.8781C24.7795 31.0329 30.8606 29.0973 36.9669 28.3787C41.5507 27.8411 46.1885 27.7567 50.6804 28.923C53.7612 29.7226 56.7259 30.9227 59.5529 32.3544C63.3513 34.2775 66.9097 36.6382 70.2431 39.253C70.2431 39.253 89.6656 40.7826 91.8795 49.9654C91.8795 49.9654 95.1393 52.1349 93.5754 58H8.32857Z" fill="#8CC63F"/>
<path d="M21 42.6483C21 42.6483 23.9329 34.7483 34 33V42.6483L21 43" fill="black"/>
<path d="M36 33.0028C36 33.0028 58.4927 32.5812 65 42H36V33.3042" fill="black"/>
<mask id="mask0_1333_1995" style="mask-type:luminance" maskUnits="userSpaceOnUse" x="15" y="51" width="15" height="16">
<path d="M15.1357 51.8193H29.5467V66.1579H15.1357V51.8193Z" fill="white"/>
</mask>
<g mask="url(#mask0_1333_1995)">
<path d="M29.4452 59.0178C29.4452 59.2511 29.4337 59.4843 29.4107 59.7175C29.3877 59.9495 29.3544 60.1805 29.3085 60.4091C29.2625 60.6388 29.2062 60.8652 29.1384 61.088C29.0706 61.3121 28.9914 61.5315 28.9018 61.7475C28.8122 61.9634 28.7122 62.1748 28.6019 62.3805C28.4916 62.5861 28.3722 62.7872 28.2423 62.9813C28.1125 63.1755 27.9735 63.3627 27.8242 63.5431C27.676 63.7235 27.5197 63.8969 27.3543 64.0624C27.1889 64.2266 27.0154 64.384 26.835 64.5322C26.6535 64.6804 26.4662 64.8194 26.2721 64.9493C26.0779 65.0791 25.8769 65.1986 25.6713 65.3088C25.4645 65.4191 25.2531 65.5191 25.0371 65.6087C24.8211 65.6983 24.6017 65.7764 24.3777 65.8442C24.1537 65.912 23.9273 65.9683 23.6976 66.0142C23.4678 66.0602 23.2369 66.0946 23.0048 66.1165C22.7716 66.1394 22.5384 66.1509 22.3052 66.1509C22.0708 66.1509 21.8376 66.1394 21.6044 66.1165C21.3723 66.0946 21.1414 66.0602 20.9117 66.0142C20.6819 65.9683 20.4556 65.912 20.2315 65.8442C20.0075 65.7764 19.7881 65.6983 19.5721 65.6087C19.3561 65.5191 19.1448 65.4191 18.938 65.3088C18.7323 65.1986 18.5313 65.0791 18.3371 64.9493C18.143 64.8194 17.9557 64.6804 17.7742 64.5322C17.5938 64.384 17.4204 64.2266 17.2549 64.0624C17.0895 63.8969 16.9333 63.7235 16.7851 63.5431C16.6357 63.3627 16.4967 63.1755 16.3669 62.9813C16.2371 62.7872 16.1176 62.5861 16.0073 62.3805C15.897 62.1748 15.7971 61.9634 15.7075 61.7475C15.6179 61.5315 15.5386 61.3121 15.4708 61.088C15.403 60.8652 15.3467 60.6388 15.3008 60.4091C15.2548 60.1805 15.2215 59.9495 15.1985 59.7175C15.1756 59.4843 15.1641 59.2511 15.1641 59.0178C15.1641 58.7846 15.1756 58.5514 15.1985 58.3182C15.2215 58.0861 15.2548 57.8552 15.3008 57.6266C15.3467 57.3968 15.403 57.1705 15.4708 56.9477C15.5386 56.7236 15.6179 56.5042 15.7075 56.2882C15.7971 56.0722 15.897 55.8609 16.0073 55.6552C16.1176 55.4496 16.2371 55.2485 16.3669 55.0544C16.4967 54.8602 16.6357 54.673 16.7851 54.4926C16.9333 54.3122 17.0895 54.1388 17.2549 53.9733C17.4204 53.8091 17.5938 53.6517 17.7742 53.5035C17.9557 53.3553 18.143 53.2163 18.3371 53.0864C18.5313 52.9566 18.7323 52.8371 18.938 52.7269C19.1448 52.6166 19.3561 52.5166 19.5721 52.427C19.7881 52.3386 20.0075 52.2593 20.2315 52.1915C20.4556 52.1237 20.6819 52.0674 20.9117 52.0215C21.1414 51.9755 21.3723 51.9422 21.6044 51.9192C21.8376 51.8963 22.0708 51.8848 22.3052 51.8848C22.5384 51.8848 22.7716 51.8963 23.0048 51.9192C23.2369 51.9422 23.4678 51.9755 23.6976 52.0215C23.9273 52.0674 24.1537 52.1237 24.3777 52.1915C24.6017 52.2593 24.8211 52.3374 25.0371 52.427C25.2531 52.5166 25.4645 52.6166 25.6713 52.7269C25.8769 52.8371 26.0779 52.9566 26.2721 53.0864C26.4662 53.2163 26.6535 53.3553 26.835 53.5035C27.0154 53.6517 27.1889 53.8091 27.3543 53.9733C27.5197 54.1388 27.676 54.3122 27.8242 54.4926C27.9735 54.673 28.1125 54.8602 28.2423 55.0544C28.3722 55.2485 28.4916 55.4496 28.6019 55.6552C28.7122 55.8609 28.8122 56.0722 28.9018 56.2882C28.9914 56.5042 29.0706 56.7236 29.1384 56.9477C29.2062 57.1705 29.2625 57.3968 29.3085 57.6266C29.3544 57.8552 29.3877 58.0861 29.4107 58.3182C29.4337 58.5514 29.4452 58.7846 29.4452 59.0178Z" fill="black"/>
</g>
<path d="M26 59C26 59.2626 25.9773 59.5228 25.9318 59.7804C25.8874 60.0381 25.8213 60.2883 25.7325 60.5311C25.6448 60.7727 25.5376 61.0031 25.4098 61.2224C25.282 61.4404 25.1369 61.6423 24.9745 61.8281C24.812 62.0139 24.6355 62.1799 24.4438 62.3261C24.2532 62.471 24.0507 62.5949 23.8385 62.6953C23.6262 62.7956 23.4075 62.8712 23.1822 62.9232C22.957 62.974 22.7296 63 22.5 63C22.2693 63 22.0419 62.974 21.8167 62.9232C21.5914 62.8712 21.3727 62.7956 21.1604 62.6953C20.9482 62.5949 20.7457 62.471 20.5551 62.3261C20.3634 62.1799 20.1869 62.0139 20.0244 61.8281C19.862 61.6423 19.7169 61.4404 19.5891 61.2224C19.4613 61.0031 19.3541 60.7727 19.2664 60.5311C19.1776 60.2883 19.1115 60.0381 19.0671 59.7804C19.0217 59.5228 19 59.2626 19 59C19 58.7374 19.0217 58.4772 19.0671 58.2196C19.1115 57.9619 19.1776 57.7117 19.2664 57.4689C19.3541 57.2273 19.4613 56.9969 19.5891 56.7776C19.7169 56.5596 19.862 56.3577 20.0244 56.1719C20.1869 55.9861 20.3634 55.8201 20.5551 55.6739C20.7457 55.529 20.9482 55.4051 21.1604 55.3047C21.3727 55.2044 21.5914 55.1288 21.8167 55.0768C22.0419 55.026 22.2693 55 22.5 55C22.7296 55 22.957 55.026 23.1822 55.0768C23.4075 55.1288 23.6262 55.2044 23.8385 55.3047C24.0507 55.4051 24.2532 55.529 24.4438 55.6739C24.6355 55.8201 24.812 55.9861 24.9745 56.1719C25.1369 56.3577 25.282 56.5596 25.4098 56.7776C25.5376 56.9969 25.6448 57.2273 25.7325 57.4689C25.8213 57.7117 25.8874 57.9619 25.9318 58.2196C25.9773 58.4772 26 58.7374 26 59Z" fill="black"/>
<mask id="mask1_1333_1995" style="mask-type:luminance" maskUnits="userSpaceOnUse" x="69" y="51" width="15" height="16">
<path d="M69.25 51.8193H83.6609V66.1579H69.25V51.8193Z" fill="white"/>
</mask>
<g mask="url(#mask1_1333_1995)">
<path d="M83.5907 59.0178C83.5907 59.2511 83.5792 59.4843 83.5574 59.7175C83.5344 59.9495 83.4999 60.1805 83.454 60.4091C83.408 60.6388 83.3517 60.8652 83.2839 61.088C83.2162 61.3121 83.1369 61.5315 83.0473 61.7475C82.9577 61.9634 82.8577 62.1748 82.7474 62.3805C82.6383 62.5861 82.5177 62.7872 82.3878 62.9813C82.258 63.1755 82.119 63.3627 81.9708 63.5431C81.8215 63.7235 81.6652 63.8969 81.4998 64.0624C81.3344 64.2266 81.1609 64.384 80.9805 64.5322C80.8002 64.6804 80.6118 64.8194 80.4176 64.9493C80.2235 65.0791 80.0224 65.1986 79.8168 65.3088C79.61 65.4191 79.3986 65.5191 79.1826 65.6087C78.9666 65.6983 78.7472 65.7764 78.5232 65.8442C78.2992 65.912 78.0728 65.9683 77.8431 66.0142C77.6145 66.0602 77.3835 66.0946 77.1503 66.1165C76.9171 66.1394 76.6839 66.1509 76.4507 66.1509C76.2163 66.1509 75.9831 66.1394 75.7499 66.1165C75.5178 66.0946 75.2869 66.0602 75.0572 66.0142C74.8274 65.9683 74.6011 65.912 74.3771 65.8442C74.1542 65.7764 73.9336 65.6983 73.7176 65.6087C73.5016 65.5191 73.2903 65.4191 73.0846 65.3088C72.8778 65.1986 72.6779 65.0791 72.4826 64.9493C72.2885 64.8194 72.1012 64.6804 71.9197 64.5322C71.7393 64.384 71.5659 64.2266 71.4004 64.0624C71.235 63.8969 71.0788 63.7235 70.9306 63.5431C70.7824 63.3627 70.6434 63.1755 70.5124 62.9813C70.3826 62.7872 70.2631 62.5861 70.1528 62.3805C70.0425 62.1748 69.9426 61.9634 69.853 61.7475C69.7634 61.5315 69.6852 61.3121 69.6175 61.088C69.5485 60.8652 69.4922 60.6388 69.4463 60.4091C69.4015 60.1805 69.367 59.9495 69.344 59.7175C69.3211 59.4843 69.3096 59.2511 69.3096 59.0178C69.3096 58.7846 69.3211 58.5514 69.344 58.3182C69.367 58.0861 69.4015 57.8552 69.4463 57.6266C69.4922 57.3968 69.5485 57.1705 69.6175 56.9477C69.6852 56.7236 69.7634 56.5042 69.853 56.2882C69.9426 56.0722 70.0425 55.8609 70.1528 55.6552C70.2631 55.4496 70.3826 55.2485 70.5124 55.0544C70.6434 54.8602 70.7824 54.673 70.9306 54.4926C71.0788 54.3122 71.235 54.1388 71.4004 53.9733C71.5659 53.8091 71.7393 53.6517 71.9197 53.5035C72.1012 53.3553 72.2885 53.2163 72.4826 53.0864C72.6779 52.9566 72.8778 52.8371 73.0846 52.7269C73.2903 52.6166 73.5016 52.5166 73.7176 52.427C73.9336 52.3386 74.1542 52.2593 74.3771 52.1915C74.6011 52.1237 74.8274 52.0674 75.0572 52.0215C75.2869 51.9755 75.5178 51.9422 75.7499 51.9192C75.9831 51.8963 76.2163 51.8848 76.4507 51.8848C76.6839 51.8848 76.9171 51.8963 77.1503 51.9192C77.3835 51.9422 77.6145 51.9755 77.8431 52.0215C78.0728 52.0674 78.2992 52.1237 78.5232 52.1915C78.7472 52.2593 78.9666 52.3374 79.1826 52.427C79.3986 52.5166 79.61 52.6166 79.8168 52.7269C80.0224 52.8371 80.2235 52.9566 80.4176 53.0864C80.6118 53.2163 80.8002 53.3553 80.9805 53.5035C81.1609 53.6517 81.3344 53.8091 81.4998 53.9733C81.6652 54.1388 81.8215 54.3122 81.9708 54.4926C82.119 54.673 82.258 54.8602 82.3878 55.0544C82.5177 55.2485 82.6383 55.4496 82.7486 55.6552C82.8577 55.8609 82.9577 56.0722 83.0473 56.2882C83.1369 56.5042 83.2162 56.7236 83.2839 56.9477C83.3517 57.1705 83.408 57.3968 83.454 57.6266C83.4999 57.8552 83.5344 58.0861 83.5574 58.3182C83.5792 58.5514 83.5907 58.7846 83.5907 59.0178Z" fill="black"/>
</g>
<path d="M80 59C80 59.2626 79.9773 59.5228 79.9329 59.7804C79.8874 60.0381 79.8213 60.2883 79.7336 60.5311C79.6448 60.7727 79.5376 61.0031 79.4098 61.2224C79.282 61.4404 79.1369 61.6423 78.9745 61.8281C78.812 62.0139 78.6355 62.1799 78.4438 62.3261C78.2532 62.471 78.0518 62.5949 77.8385 62.6953C77.6262 62.7956 77.4075 62.8712 77.1822 62.9232C76.957 62.974 76.7296 63 76.5 63C76.2693 63 76.0419 62.974 75.8167 62.9232C75.5914 62.8712 75.3727 62.7956 75.1604 62.6953C74.9482 62.5949 74.7457 62.471 74.5551 62.3261C74.3645 62.1799 74.1869 62.0139 74.0244 61.8281C73.862 61.6423 73.7169 61.4404 73.5891 61.2224C73.4613 61.0031 73.3541 60.7727 73.2664 60.5311C73.1776 60.2883 73.1115 60.0381 73.0671 59.7804C73.0217 59.5228 73 59.2626 73 59C73 58.7374 73.0217 58.4772 73.0671 58.2196C73.1115 57.9619 73.1776 57.7117 73.2664 57.4689C73.3541 57.2273 73.4613 56.9969 73.5891 56.7776C73.7169 56.5596 73.862 56.3577 74.0244 56.1719C74.1869 55.9861 74.3645 55.8201 74.5551 55.6739C74.7457 55.529 74.9482 55.4051 75.1604 55.3047C75.3727 55.2044 75.5914 55.1288 75.8167 55.0768C76.0419 55.026 76.2693 55 76.5 55C76.7296 55 76.957 55.026 77.1822 55.0768C77.4075 55.1288 77.6262 55.2044 77.8385 55.3047C78.0518 55.4051 78.2532 55.529 78.4438 55.6739C78.6355 55.8201 78.812 55.9861 78.9745 56.1719C79.1369 56.3577 79.282 56.5596 79.4098 56.7776C79.5376 56.9969 79.6448 57.2273 79.7336 57.4689C79.8213 57.7117 79.8874 57.9619 79.9329 58.2196C79.9773 58.4772 80 58.7374 80 59Z" fill="black"/>
</svg>
