<svg width="16" height="17" viewBox="0 0 16 17" fill="none" xmlns="http://www.w3.org/2000/svg">
<path fill-rule="evenodd" clip-rule="evenodd" d="M4.0625 6C4.0625 3.82538 5.82538 2.0625 8 2.0625C9.83395 2.0625 11.3763 3.31682 11.8135 5.01521C11.8909 5.31606 12.1976 5.49718 12.4984 5.41975C12.7993 5.34231 12.9804 5.03565 12.903 4.73479C12.341 2.55142 10.3597 0.9375 8 0.9375C5.20406 0.9375 2.9375 3.20406 2.9375 6V7.54096C2.10143 7.6034 1.55698 7.76104 1.15901 8.15901C0.5 8.81802 0.5 9.87868 0.5 12C0.5 14.1213 0.5 15.182 1.15901 15.841C1.81802 16.5 2.87868 16.5 5 16.5H11C13.1213 16.5 14.182 16.5 14.841 15.841C15.5 15.182 15.5 14.1213 15.5 12C15.5 9.87868 15.5 8.81802 14.841 8.15901C14.182 7.5 13.1213 7.5 11 7.5H5C4.66136 7.5 4.34976 7.5 4.0625 7.50268V6ZM5 12.75C5.41421 12.75 5.75 12.4142 5.75 12C5.75 11.5858 5.41421 11.25 5 11.25C4.58579 11.25 4.25 11.5858 4.25 12C4.25 12.4142 4.58579 12.75 5 12.75ZM8 12.75C8.41421 12.75 8.75 12.4142 8.75 12C8.75 11.5858 8.41421 11.25 8 11.25C7.58579 11.25 7.25 11.5858 7.25 12C7.25 12.4142 7.58579 12.75 8 12.75ZM11.75 12C11.75 12.4142 11.4142 12.75 11 12.75C10.5858 12.75 10.25 12.4142 10.25 12C10.25 11.5858 10.5858 11.25 11 11.25C11.4142 11.25 11.75 11.5858 11.75 12Z" fill="#8CC63F"/>
</svg>
