<svg width="19" height="21" viewBox="0 0 19 21" fill="none" xmlns="http://www.w3.org/2000/svg">
<path d="M18.0007 8.55572C17.9893 6.5025 17.8987 5.38805 17.1733 4.66272C16.3422 3.8335 15.0049 3.8335 12.334 3.8335H9.50065C6.82976 3.8335 5.49243 3.8335 4.6651 4.66272C3.83776 5.49194 3.83398 6.82927 3.83398 9.50016V14.2224C3.83398 16.8933 3.83398 18.2306 4.6651 19.0598C5.49621 19.8891 6.82976 19.8891 9.50065 19.8891H12.334C15.0049 19.8891 16.3403 19.8891 17.1695 19.0598C17.9988 18.2306 17.9988 16.8933 17.9988 14.2224V13.2779" stroke="#8CC63F" stroke-width="0.8" stroke-linecap="round"/>
<path d="M1 8.55556V14.2222C1 14.9737 1.29851 15.6943 1.82986 16.2257C2.36122 16.757 3.08189 17.0556 3.83333 17.0556M15.1667 3.83333C15.1667 3.08189 14.8682 2.36122 14.3368 1.82986C13.8055 1.29851 13.0848 1 12.3333 1H8.55556C4.995 1 3.21378 1 2.10689 2.10689C1.45885 2.84612 1.09994 3.79472 1.09633 4.77778" stroke="#8CC63F" stroke-width="0.8" stroke-linecap="round"/>
</svg>
