<svg width="22" height="22" viewBox="0 0 22 22" fill="none" xmlns="http://www.w3.org/2000/svg">
<path fill-rule="evenodd" clip-rule="evenodd" d="M8.79174 2.93228C8.5685 3.12252 8.45688 3.21764 8.33767 3.29754C8.06441 3.4807 7.75752 3.60781 7.43479 3.67153C7.294 3.69932 7.14781 3.71099 6.85544 3.73432C6.12084 3.79294 5.75353 3.82225 5.4471 3.93049C4.73833 4.18083 4.18083 4.73833 3.93049 5.4471C3.82225 5.75353 3.79294 6.12084 3.73432 6.85544C3.71099 7.14781 3.69932 7.294 3.67153 7.43479C3.60781 7.75752 3.4807 8.06441 3.29754 8.33767C3.21764 8.45688 3.12252 8.5685 2.93228 8.79174C2.4543 9.35262 2.21529 9.63308 2.07515 9.9263C1.75099 10.6045 1.75099 11.3929 2.07515 12.0711C2.21529 12.3643 2.45429 12.6448 2.93228 13.2057C3.1225 13.4289 3.21765 13.5405 3.29754 13.6597C3.4807 13.933 3.60781 14.2399 3.67153 14.5626C3.69932 14.7034 3.71099 14.8496 3.73432 15.142C3.79294 15.8766 3.82225 16.2439 3.93049 16.5503C4.18083 17.2591 4.73833 17.8166 5.4471 18.0669C5.75353 18.1751 6.12084 18.2045 6.85544 18.2631C7.14781 18.2864 7.294 18.2981 7.43479 18.3259C7.75752 18.3896 8.06441 18.5167 8.33767 18.6999C8.45688 18.7798 8.5685 18.8749 8.79173 19.0651C9.35263 19.5431 9.63308 19.7821 9.9263 19.9223C10.6045 20.2464 11.3929 20.2464 12.0711 19.9223C12.3643 19.7821 12.6448 19.5431 13.2057 19.0651C13.4289 18.8749 13.5405 18.7798 13.6597 18.6999C13.933 18.5167 14.2399 18.3896 14.5626 18.3259C14.7034 18.2981 14.8496 18.2864 15.142 18.2631C15.8766 18.2045 16.2439 18.1751 16.5503 18.0669C17.2591 17.8166 17.8166 17.2591 18.0669 16.5503C18.1751 16.2439 18.2045 15.8766 18.2631 15.142C18.2864 14.8496 18.2981 14.7034 18.3259 14.5626C18.3896 14.2399 18.5167 13.933 18.6999 13.6597C18.7798 13.5405 18.8749 13.4289 19.0651 13.2057C19.5431 12.6448 19.7821 12.3643 19.9223 12.0711C20.2464 11.3929 20.2464 10.6045 19.9223 9.9263C19.7821 9.63308 19.5431 9.35263 19.0651 8.79174C18.8749 8.5685 18.7798 8.45688 18.6999 8.33767C18.5167 8.06441 18.3896 7.75752 18.3259 7.43479C18.2981 7.294 18.2864 7.14781 18.2631 6.85544C18.2045 6.12084 18.1751 5.75353 18.0669 5.4471C17.8166 4.73833 17.2591 4.18083 16.5503 3.93049C16.2439 3.82225 15.8766 3.79294 15.142 3.73432C14.8496 3.71099 14.7034 3.69932 14.5626 3.67153C14.2399 3.60781 13.933 3.4807 13.6597 3.29754C13.5405 3.21764 13.4289 3.12252 13.2057 2.93228C12.6448 2.45429 12.3643 2.21529 12.0711 2.07515C11.3929 1.75099 10.6045 1.75099 9.9263 2.07515C9.63308 2.21529 9.35262 2.4543 8.79174 2.93228ZM14.5104 7.48749C14.8017 7.77884 14.8017 8.2512 14.5104 8.54255L8.54206 14.5109C8.25072 14.8022 7.77835 14.8022 7.487 14.5109C7.19566 14.2195 7.19566 13.7471 7.487 13.4558L13.4553 7.48749C13.7467 7.19614 14.219 7.19614 14.5104 7.48749ZM14.4802 13.486C14.4802 14.0353 14.0348 14.4807 13.4855 14.4807C12.9361 14.4807 12.4908 14.0353 12.4908 13.486C12.4908 12.9366 12.9361 12.4912 13.4855 12.4912C14.0348 12.4912 14.4802 12.9366 14.4802 13.486ZM8.51189 9.50709C9.06126 9.50709 9.50661 9.06174 9.50661 8.51238C9.50661 7.96301 9.06126 7.51766 8.51189 7.51766C7.96252 7.51766 7.51717 7.96301 7.51717 8.51238C7.51717 9.06174 7.96252 9.50709 8.51189 9.50709Z" fill="#8CC63F"/>
</svg>
