<svg width="20" height="20" viewBox="0 0 20 20" fill="none" xmlns="http://www.w3.org/2000/svg">
<path d="M2.5 5.43683C2.5 5.10809 2.77226 4.8416 3.10811 4.8416H7.09823C7.10364 4.14057 7.17962 3.17953 7.87531 2.51423C8.4228 1.99065 9.1734 1.66699 9.99999 1.66699C10.8266 1.66699 11.5772 1.99065 12.1247 2.51423C12.8204 3.17953 12.8963 4.14057 12.9018 4.8416H16.8919C17.2277 4.8416 17.5 5.10809 17.5 5.43683C17.5 5.76557 17.2277 6.03207 16.8919 6.03207H3.10811C2.77226 6.03207 2.5 5.76557 2.5 5.43683Z" fill="#8CC63F"/>
<path fill-rule="evenodd" clip-rule="evenodd" d="M9.663 18.3337H10.337C12.6559 18.3337 13.8154 18.3337 14.5693 17.5954C15.3231 16.8571 15.4003 15.6461 15.5545 13.2241L15.7768 9.73416C15.8605 8.42 15.9023 7.76292 15.5241 7.34654C15.1459 6.93015 14.5073 6.93015 13.23 6.93015H6.77004C5.49272 6.93015 4.85407 6.93015 4.47588 7.34654C4.09769 7.76292 4.13953 8.42 4.22323 9.73416L4.44549 13.2241C4.59975 15.6461 4.67687 16.8571 5.43074 17.5954C6.18461 18.3337 7.34407 18.3337 9.663 18.3337ZM8.53856 10.1574C8.50422 9.79585 8.19794 9.53207 7.85448 9.56822C7.51101 9.60438 7.26042 9.92677 7.29477 10.2883L7.71143 14.6743C7.74578 15.0358 8.05206 15.2996 8.39552 15.2634C8.73899 15.2273 8.98958 14.9049 8.95523 14.5434L8.53856 10.1574ZM12.1455 9.56822C12.489 9.60438 12.7396 9.92677 12.7052 10.2883L12.2886 14.6743C12.2542 15.0358 11.9479 15.2996 11.6045 15.2634C11.261 15.2273 11.0104 14.9049 11.0448 14.5434L11.4614 10.1574C11.4958 9.79585 11.8021 9.53207 12.1455 9.56822Z" fill="#8CC63F"/>
</svg>
