<svg width="11" height="12" viewBox="0 0 11 12" fill="none" xmlns="http://www.w3.org/2000/svg">
<path d="M5.81224 8.77297C5.73209 8.86861 5.61878 8.92308 5.5 8.92308C5.38122 8.92308 5.26791 8.86861 5.18776 8.77297L2.93135 6.08066C2.77368 5.89254 2.78566 5.6006 2.95811 5.4286C3.13056 5.2566 3.39817 5.26968 3.55583 5.4578L5.07692 7.27274L5.07692 0.461539C5.07692 0.206639 5.26634 9.20796e-07 5.5 9.61651e-07C5.73366 1.0025e-06 5.92308 0.206639 5.92308 0.46154L5.92308 7.27274L7.44417 5.4578C7.60183 5.26968 7.86944 5.2566 8.04189 5.4286C8.21433 5.6006 8.22632 5.89254 8.06865 6.08066L5.81224 8.77297Z" fill="#8CC63F"/>
<path d="M0.846153 7.84615C0.846153 7.59125 0.656735 7.38462 0.423076 7.38462C0.189418 7.38462 -1.02831e-06 7.59125 -1.07288e-06 7.84615L-1.07878e-06 7.87992C-1.26242e-05 8.72151 -2.19309e-05 9.39987 0.06573 9.93338C0.133995 10.4873 0.280038 10.9537 0.61958 11.3241C0.959123 11.6945 1.38664 11.8538 1.89439 11.9283C2.38345 12 3.00528 12 3.77674 12L7.22326 12C7.99472 12 8.61654 12 9.1056 11.9283C9.61335 11.8538 10.0409 11.6945 10.3804 11.3241C10.72 10.9537 10.866 10.4873 10.9343 9.93339C11 9.39987 11 8.72152 11 7.87992L11 7.84616C11 7.59126 10.8106 7.38462 10.5769 7.38462C10.3433 7.38462 10.1538 7.59126 10.1538 7.84616C10.1538 8.72949 10.1529 9.34556 10.0957 9.81039C10.04 10.2619 9.93822 10.5011 9.78209 10.6714C9.62597 10.8417 9.40678 10.9527 8.99285 11.0134C8.56676 11.0759 8.00203 11.0769 7.19231 11.0769L3.80769 11.0769C2.99797 11.0769 2.43324 11.0759 2.00714 11.0134C1.59322 10.9527 1.37402 10.8417 1.2179 10.6714C1.06178 10.5011 0.959989 10.2619 0.904338 9.81039C0.847051 9.34556 0.846153 8.72949 0.846153 7.84615Z" fill="#8CC63F"/>
</svg>
