<svg width="22" height="18" viewBox="0 0 22 18" fill="none" xmlns="http://www.w3.org/2000/svg">
<mask id="mask0_1237_14820" style="mask-type:luminance" maskUnits="userSpaceOnUse" x="1" y="13" width="4" height="5">
<path d="M1.96875 13.4854H4.8885V17.6204H1.96875V13.4854Z" fill="white"/>
</mask>
<g mask="url(#mask0_1237_14820)">
<path d="M4.84524 13.5431C4.84524 13.5224 4.8357 13.5081 4.8166 13.5002C4.79777 13.4925 4.78079 13.4956 4.7662 13.5102L1.9979 16.2822C1.98888 16.2913 1.98438 16.3024 1.98438 16.3151L1.98464 17.518C1.98464 17.531 1.98703 17.5437 1.99207 17.5557C1.99711 17.5679 2.00427 17.5785 2.01355 17.5878C2.02283 17.597 2.03344 17.6042 2.04538 17.6092C2.05758 17.614 2.07005 17.6167 2.08304 17.6167H4.74711C4.76037 17.6167 4.77283 17.614 4.78477 17.6092C4.79697 17.6042 4.80758 17.597 4.81686 17.5878C4.82615 17.5785 4.83331 17.5679 4.83808 17.5557C4.84312 17.5437 4.84578 17.531 4.84578 17.518L4.84524 13.5431Z" fill="#8CC63F"/>
</g>
<mask id="mask1_1237_14820" style="mask-type:luminance" maskUnits="userSpaceOnUse" x="9" y="13" width="4" height="5">
<path d="M9.8457 13.689H12.7655V17.6203H9.8457V13.689Z" fill="white"/>
</mask>
<g mask="url(#mask1_1237_14820)">
<path d="M12.7505 13.7862C12.7505 13.7655 12.7412 13.7512 12.7221 13.7435C12.703 13.7356 12.6863 13.7387 12.6717 13.7533L10.9323 15.4949C10.9233 15.5039 10.9124 15.5084 10.8997 15.5084C10.8869 15.5084 10.8761 15.5039 10.8671 15.4949L9.96869 14.5955C9.9541 14.5809 9.93739 14.5777 9.91829 14.5856C9.8992 14.5933 9.88965 14.6077 9.88965 14.6283L9.88991 17.5179C9.88991 17.5309 9.89257 17.5436 9.89761 17.5555C9.90238 17.5677 9.90954 17.5783 9.91882 17.5876C9.92811 17.5969 9.93872 17.6041 9.95092 17.6091C9.96285 17.6139 9.97532 17.6165 9.98858 17.6165H12.6524C12.6656 17.6165 12.6781 17.6139 12.6903 17.6088C12.7022 17.6041 12.7129 17.5969 12.7221 17.5876C12.7314 17.5783 12.7386 17.5677 12.7436 17.5555C12.7484 17.5436 12.751 17.5309 12.751 17.5179L12.7505 13.7862Z" fill="#8CC63F"/>
</g>
<mask id="mask2_1237_14820" style="mask-type:luminance" maskUnits="userSpaceOnUse" x="5" y="11" width="4" height="7">
<path d="M5.90723 11.4482H8.82698V17.6204H5.90723V11.4482Z" fill="white"/>
</mask>
<g mask="url(#mask2_1237_14820)">
<path d="M8.79837 13.443C8.79837 13.4303 8.79386 13.4194 8.78484 13.4104L6.93109 11.5545C6.91703 11.5404 6.90111 11.5296 6.88281 11.5221C6.86451 11.5145 6.84541 11.5107 6.82552 11.5107C6.80589 11.5107 6.7868 11.5145 6.76849 11.5221C6.75019 11.5296 6.73428 11.5404 6.72022 11.5545L5.95103 12.3248C5.94201 12.3338 5.9375 12.3447 5.9375 12.3574L5.93777 17.5179C5.93777 17.5309 5.94042 17.5436 5.94546 17.5555C5.95023 17.5677 5.95739 17.5784 5.96668 17.5876C5.97596 17.5969 5.98657 17.6041 5.99877 17.6091C6.01071 17.6139 6.02317 17.6165 6.03643 17.6165H8.70023C8.71349 17.6165 8.72596 17.6139 8.73816 17.6091C8.7501 17.6041 8.76071 17.5969 8.76999 17.5876C8.77927 17.5784 8.78643 17.5677 8.79121 17.5555C8.79625 17.5436 8.7989 17.5309 8.7989 17.5179L8.79837 13.443Z" fill="#8CC63F"/>
</g>
<mask id="mask3_1237_14820" style="mask-type:luminance" maskUnits="userSpaceOnUse" x="13" y="9" width="4" height="9">
<path d="M13.7842 9.75098H16.7039V17.6206H13.7842V9.75098Z" fill="white"/>
</mask>
<g mask="url(#mask3_1237_14820)">
<path d="M16.7027 9.82911C16.7027 9.80842 16.6931 9.79436 16.6743 9.7864C16.6552 9.77844 16.6382 9.78189 16.6239 9.79648L13.8553 12.5682C13.8463 12.5772 13.8418 12.5881 13.8418 12.6011L13.8423 17.5181C13.8423 17.5311 13.8447 17.5439 13.8498 17.5558C13.8548 17.568 13.8617 17.5786 13.871 17.5879C13.8803 17.5972 13.8909 17.6043 13.9031 17.6094C13.915 17.6141 13.9277 17.6168 13.9407 17.6168H16.6048C16.6178 17.6168 16.6303 17.6141 16.6425 17.6094C16.6544 17.6043 16.665 17.5972 16.6743 17.5879C16.6836 17.5786 16.6907 17.568 16.6958 17.5558C16.7008 17.5439 16.7032 17.5311 16.7032 17.5181L16.7027 9.82911Z" fill="#8CC63F"/>
</g>
<mask id="mask4_1237_14820" style="mask-type:luminance" maskUnits="userSpaceOnUse" x="17" y="7" width="4" height="11">
<path d="M17.79 7.50977H20.7098V17.6202H17.79V7.50977Z" fill="white"/>
</mask>
<g mask="url(#mask4_1237_14820)">
<path d="M20.6548 9.18176C20.6548 9.16902 20.6503 9.15788 20.6413 9.14887L19.0613 7.56671C19.0472 7.55266 19.0313 7.54205 19.013 7.53435C18.9947 7.52666 18.9756 7.52295 18.9557 7.52295C18.9361 7.52295 18.917 7.52666 18.8987 7.53435C18.8804 7.54205 18.8645 7.55266 18.8504 7.56671L17.8075 8.61096C17.7985 8.61998 17.7939 8.63085 17.7939 8.64358L17.7945 17.518C17.7945 17.531 17.7969 17.5437 17.8019 17.5556C17.8069 17.5678 17.8138 17.5784 17.8231 17.5877C17.8324 17.597 17.843 17.6042 17.8552 17.6092C17.8672 17.614 17.8799 17.6166 17.8929 17.6166H20.5569C20.5699 17.6166 20.5824 17.614 20.5946 17.6092C20.6065 17.6042 20.6172 17.597 20.6264 17.5877C20.6357 17.5784 20.6429 17.5678 20.6479 17.5556C20.653 17.5437 20.6553 17.531 20.6553 17.518L20.6548 9.18176Z" fill="#8CC63F"/>
</g>
<mask id="mask5_1237_14820" style="mask-type:luminance" maskUnits="userSpaceOnUse" x="0" y="0" width="22" height="14">
<path d="M0 0H22V13.8927H0V0Z" fill="white"/>
</mask>
<g mask="url(#mask5_1237_14820)">
<path d="M21.8255 0.0113353L15.4406 1.24125C15.4146 1.24629 15.3918 1.25769 15.3722 1.2752C15.3526 1.29297 15.3388 1.31446 15.3311 1.33965C15.3234 1.36485 15.3226 1.39031 15.329 1.41604C15.3353 1.44177 15.3478 1.46379 15.3666 1.48262L16.9329 3.05071L11.0048 8.98623C10.9907 9.00029 10.9748 9.01117 10.9565 9.01859C10.9382 9.02629 10.9191 9.03 10.8995 9.03C10.8796 9.03 10.8605 9.02629 10.8422 9.01859C10.8239 9.01117 10.808 9.00029 10.7939 8.98623L6.9612 5.14955C6.94317 5.13151 6.92221 5.11746 6.89861 5.10764C6.875 5.09809 6.8506 5.09305 6.82487 5.09305C6.79941 5.09305 6.77501 5.09809 6.7514 5.10764C6.72779 5.11746 6.70684 5.13151 6.6888 5.14955L0.056496 11.7903C0.0384597 11.8084 0.024402 11.8293 0.0145882 11.8529C0.00477426 11.8765 0 11.9012 0 11.9267C0 11.9524 0.00477426 11.9771 0.0145882 12.0007C0.024402 12.0243 0.0384597 12.045 0.056496 12.0633L1.80707 13.8157C1.82511 13.8337 1.84606 13.8475 1.86967 13.8574C1.89328 13.8672 1.91794 13.8722 1.94341 13.8722C1.96887 13.8722 1.99354 13.8672 2.01714 13.8574C2.04075 13.8475 2.06144 13.8337 2.07948 13.8157L6.71984 9.16952C6.73363 9.15572 6.74981 9.14485 6.76811 9.13716C6.78641 9.12973 6.80551 9.12575 6.82514 9.12575C6.84503 9.12575 6.86413 9.12973 6.88243 9.13716C6.90073 9.14485 6.91664 9.15572 6.9307 9.16952L10.7631 13.0065C10.7812 13.0245 10.8021 13.0386 10.8257 13.0484C10.8493 13.0579 10.8737 13.063 10.8995 13.063C10.9249 13.063 10.9496 13.0579 10.9732 13.0484C10.9968 13.0386 11.0175 13.0245 11.0355 13.0065L18.9561 5.07634L20.5224 6.64444C20.5409 6.66327 20.5632 6.67574 20.5887 6.6821C20.6144 6.68847 20.6399 6.68767 20.6651 6.67998C20.6903 6.67229 20.7117 6.6585 20.7295 6.63887C20.747 6.61924 20.7584 6.59643 20.7635 6.57044L21.9926 0.178701C21.9947 0.167296 21.9955 0.155625 21.995 0.143955C21.9944 0.132284 21.9923 0.120879 21.9889 0.109739C21.9854 0.098599 21.9806 0.0879894 21.9748 0.0779104C21.9687 0.0680966 21.9615 0.0588132 21.9533 0.0505907C21.9451 0.0423684 21.9361 0.0352069 21.926 0.0291064C21.9159 0.0232711 21.9056 0.0184968 21.8942 0.0150487C21.883 0.0116005 21.8719 0.00947864 21.8602 0.00894819C21.8485 0.00841775 21.8369 0.00921343 21.8255 0.0113353Z" fill="#8CC63F"/>
</g>
</svg>
