<svg width="20" height="20" viewBox="0 0 20 20" fill="none" xmlns="http://www.w3.org/2000/svg">
<path fill-rule="evenodd" clip-rule="evenodd" d="M11.1061 20H8.89393C5.44737 20 3.72409 20 2.54903 18.9882C1.37396 17.9764 1.13025 16.2827 0.642838 12.8952L0.364072 10.9579C-0.0153722 8.32081 -0.205094 7.00229 0.335366 5.87495C0.875827 4.7476 2.02619 4.06234 4.32691 2.69181L5.71175 1.86687C7.80104 0.62229 8.84569 0 10 0C11.1543 0 12.199 0.62229 14.2882 1.86687L15.6731 2.69181C17.9738 4.06234 19.1242 4.7476 19.6646 5.87495C20.2051 7.00229 20.0154 8.32082 19.6359 10.9579L19.3572 12.8952C18.8697 16.2827 18.626 17.9764 17.451 18.9882C16.2759 20 14.5526 20 11.1061 20ZM6.39757 13.5532C6.64423 13.2204 7.11395 13.1506 7.44671 13.3973C8.17505 13.9371 9.0542 14.2498 10.0001 14.2498C10.946 14.2498 11.8251 13.9371 12.5535 13.3973C12.8863 13.1506 13.356 13.2204 13.6026 13.5532C13.8493 13.8859 13.7795 14.3557 13.4467 14.6023C12.4743 15.3231 11.2851 15.7498 10.0001 15.7498C8.71513 15.7498 7.5259 15.3231 6.55349 14.6023C6.22072 14.3557 6.15092 13.8859 6.39757 13.5532Z" fill="#8CC63F"/>
</svg>
