<svg width="21" height="13" viewBox="0 0 21 13" fill="none" xmlns="http://www.w3.org/2000/svg">
<mask id="mask0_1237_16109" style="mask-type:luminance" maskUnits="userSpaceOnUse" x="0" y="0" width="21" height="13">
<path d="M0 0H20.2222V13H0V0Z" fill="white"/>
</mask>
<g mask="url(#mask0_1237_16109)">
<path d="M17.9105 3.2626H10.2991C10.1899 3.2626 10.1011 3.1648 10.1011 3.04416C10.1011 2.92352 10.1899 2.82572 10.2991 2.82572H17.9105C18.0197 2.82572 18.1084 2.92352 18.1084 3.04416C18.1084 3.1648 18.0197 3.2626 17.9105 3.2626ZM17.9105 5.56629H10.2991C10.1899 5.56629 10.1011 5.46849 10.1011 5.34785C10.1011 5.22721 10.1899 5.12941 10.2991 5.12941H17.9105C18.0197 5.12941 18.1084 5.22721 18.1084 5.34785C18.1084 5.46849 18.0197 5.56629 17.9105 5.56629ZM17.9105 7.87026H10.2991C10.1899 7.87026 10.1011 7.77246 10.1011 7.65182C10.1011 7.53118 10.1899 7.43338 10.2991 7.43338H17.9105C18.0197 7.43338 18.1084 7.53118 18.1084 7.65182C18.1084 7.77246 18.0197 7.87026 17.9105 7.87026ZM14.1046 10.174H10.2991C10.1899 10.174 10.1011 10.0762 10.1011 9.95551C10.1011 9.83487 10.1899 9.73707 10.2991 9.73707H14.1046C14.2141 9.73707 14.3029 9.83487 14.3029 9.95551C14.3029 10.0762 14.2141 10.174 14.1046 10.174ZM7.34245 10.1997C7.34245 10.5434 7.09011 10.822 6.77853 10.822H2.07064C1.7593 10.822 1.50696 10.5434 1.50696 10.1997V9.60139C1.50696 8.28054 2.22741 7.14562 3.25822 6.64882C3.60613 6.85436 4.00329 6.97124 4.42483 6.97124C4.84613 6.97124 5.24329 6.85436 5.5912 6.64882C6.62201 7.14562 7.34245 8.28054 7.34245 9.60139V10.1997ZM4.42483 2.17738C5.45198 2.17738 6.28775 3.10004 6.28775 4.23362C6.28775 5.36747 5.45198 6.28986 4.42483 6.28986C3.39743 6.28986 2.56167 5.36747 2.56167 4.23362C2.56167 3.10004 3.39743 2.17738 4.42483 2.17738ZM18.9964 0.0136719H1.22586C0.550026 0.0136719 0 0.620897 0 1.36703V11.6326C0 12.3788 0.550026 12.9857 1.22586 12.9857H18.9964C19.6722 12.9857 20.2222 12.3788 20.2222 11.6326V1.36703C20.2222 0.620897 19.6722 0.0136719 18.9964 0.0136719Z" fill="#8CC63F"/>
</g>
</svg>
