<svg width="20" height="20" viewBox="0 0 20 20" fill="none" xmlns="http://www.w3.org/2000/svg">
<path d="M13.7551 9.53873C13.8846 9.65713 13.9583 9.82452 13.9583 10C13.9583 10.1755 13.8846 10.3429 13.7551 10.4613L10.1092 13.7946C9.85448 14.0275 9.45915 14.0098 9.22623 13.7551C8.99332 13.5003 9.01102 13.105 9.26577 12.8721L11.7235 10.625L2.5 10.625C2.15482 10.625 1.875 10.3452 1.875 10C1.875 9.65482 2.15482 9.375 2.5 9.375L11.7235 9.375L9.26577 7.12793C9.01102 6.89502 8.99332 6.49968 9.22623 6.24493C9.45915 5.99018 9.85448 5.97248 10.1092 6.2054L13.7551 9.53873Z" fill="#8CC63F"/>
<path d="M12.5 16.875C12.1548 16.875 11.875 17.1548 11.875 17.5C11.875 17.8452 12.1548 18.125 12.5 18.125L12.5457 18.125C13.6854 18.125 14.604 18.125 15.3265 18.0279C16.0765 17.927 16.7081 17.7113 17.2097 17.2097C17.7113 16.7081 17.927 16.0765 18.0279 15.3265C18.125 14.604 18.125 13.6854 18.125 12.5457L18.125 7.45427C18.125 6.31461 18.125 5.39601 18.0279 4.67354C17.927 3.92345 17.7113 3.29189 17.2097 2.79029C16.7081 2.28869 16.0765 2.07295 15.3265 1.9721C14.604 1.87497 13.6854 1.87498 12.5457 1.875L12.5 1.875C12.1548 1.875 11.875 2.15482 11.875 2.5C11.875 2.84518 12.1548 3.125 12.5 3.125C13.6962 3.125 14.5304 3.12632 15.1599 3.21095C15.7714 3.29316 16.0952 3.44354 16.3258 3.67417C16.5565 3.90481 16.7068 4.22862 16.789 4.8401C16.8737 5.46956 16.875 6.30382 16.875 7.5L16.875 12.5C16.875 13.6962 16.8737 14.5304 16.789 15.1599C16.7068 15.7714 16.5565 16.0952 16.3258 16.3258C16.0952 16.5565 15.7714 16.7068 15.1599 16.789C14.5304 16.8737 13.6962 16.875 12.5 16.875Z" fill="#8CC63F"/>
</svg>
