<svg width="23" height="23" viewBox="0 0 23 23" fill="none" xmlns="http://www.w3.org/2000/svg">
<path d="M12.2554 0C8.28854 0 4.84118 2.15902 3 5.33888C3.82004 5.35568 4.58995 5.70745 5.14225 6.29278C6.63165 3.91643 9.25954 2.34331 12.2554 2.34331C16.8914 2.34331 20.6572 6.10906 20.6572 10.7282C20.6572 13.7405 19.0673 16.3849 16.6903 17.8578C17.1088 18.2429 17.4101 18.7447 17.5608 19.297C17.6109 19.5315 17.6445 19.7656 17.6613 20C20.8578 18.1423 23 14.6779 23 10.7282C23 4.8202 18.1803 0 12.2554 0Z" fill="#8CC63F"/>
<path d="M16.6556 7.31418C16.1957 6.89527 15.4508 6.89527 14.991 7.31418L11.59 10.4115L10.0089 8.9718C9.5502 8.5529 8.8039 8.5529 8.3449 8.9718C7.88503 9.39019 7.88503 10.0692 8.3449 10.4879L10.7578 12.6859C10.9873 12.8952 11.2886 13 11.59 13C11.8913 13 12.1926 12.8952 12.4221 12.6861L16.6553 8.83C17.1149 8.41162 17.1149 7.73256 16.6556 7.31418Z" fill="#8CC63F"/>
<path d="M15.4159 18.6131L12.1462 16.9251C11.6847 16.6866 11.1182 16.8105 10.7987 17.2195L9.59814 18.7565C8.43015 18.1256 7.543 17.5274 6.51221 16.4981C5.41267 15.4001 4.82994 14.4977 4.22701 13.363L5.74907 12.1768C6.15898 11.8577 6.28242 11.2923 6.04395 10.8314L4.36196 7.58348C4.06597 7.01222 3.33902 6.82479 2.80399 7.18144L0.721356 8.56798C0.238504 8.88961 -0.0353267 9.44406 0.00367181 10.0226C0.0435119 10.6146 0.117581 11.3604 0.253655 11.8809C0.859955 14.2108 2.31777 16.6135 4.35747 18.65C6.39549 20.6857 8.80274 22.1426 11.1359 22.7477C11.6589 22.8842 12.408 22.9573 13.0039 22.9965C13.5914 23.0349 14.1531 22.7522 14.4713 22.258L15.8278 20.1548C16.1726 19.6203 15.9815 18.9053 15.4159 18.6131Z" fill="#8CC63F"/>
</svg>
