<svg width="16" height="16" viewBox="0 0 16 16" fill="none" xmlns="http://www.w3.org/2000/svg">
<path d="M6.03759 1.31617L6.6866 2.4791C7.2723 3.52858 7.03718 4.90533 6.11471 5.8278C6.11471 5.8278 4.99578 6.94675 7.02451 8.97548C9.05322 11.0042 10.1722 9.88529 10.1722 9.88529C11.0947 8.96282 12.4714 8.72769 13.5209 9.31339L14.6838 9.96241C16.2686 10.8468 16.4557 13.0692 15.0628 14.4622C14.2258 15.2992 13.2004 15.9505 12.0669 15.9934C10.1588 16.0658 6.91828 15.5829 3.6677 12.3323C0.417128 9.08172 -0.0657854 5.84122 0.00655165 3.93309C0.0495219 2.7996 0.700803 1.77423 1.53781 0.937232C2.93076 -0.455718 5.15317 -0.268563 6.03759 1.31617Z" fill="#8CC63F"/>
</svg>
