<svg width="16" height="22" viewBox="0 0 16 22" fill="none" xmlns="http://www.w3.org/2000/svg">
<mask id="mask0_1293_487" style="mask-type:luminance" maskUnits="userSpaceOnUse" x="0" y="6" width="16" height="16">
<path d="M0 6.82202H16V21.4307H0V6.82202Z" fill="white"/>
</mask>
<g mask="url(#mask0_1293_487)">
<path d="M0 6.86694V21.3748H16V6.86694H0ZM12.1328 12.7362L10.298 14.5366L10.744 17.0665C10.7554 17.1302 10.7488 17.1924 10.7246 17.2528C10.7005 17.3129 10.6621 17.3621 10.6096 17.4005C10.5571 17.4388 10.4985 17.4602 10.4339 17.4651C10.369 17.4699 10.3077 17.4572 10.2503 17.427L7.9695 16.2368L5.69716 17.4421C5.64674 17.4678 5.5936 17.4808 5.53714 17.4814C5.46377 17.4811 5.39734 17.4596 5.33786 17.4168C5.31159 17.3977 5.28835 17.3757 5.26842 17.35C5.24819 17.3247 5.23219 17.2966 5.22011 17.2667C5.20803 17.2365 5.20048 17.2051 5.19746 17.1728C5.19414 17.1405 5.19565 17.1085 5.20169 17.0768L5.6256 14.5433L3.77717 12.7685C3.73219 12.7241 3.70199 12.6716 3.68629 12.6103C3.67089 12.5493 3.6721 12.4886 3.69022 12.4282C3.71014 12.3666 3.74457 12.3147 3.79408 12.2727C3.8433 12.2308 3.90006 12.2051 3.96437 12.1954L6.50725 11.8078L7.63768 9.49889C7.66636 9.44122 7.70803 9.39532 7.76298 9.36151C7.81793 9.32739 7.87772 9.31048 7.94233 9.31048C8.00664 9.31048 8.06643 9.32739 8.12138 9.36151C8.17633 9.39532 8.21799 9.44122 8.24698 9.49889L9.39583 11.7975L11.949 12.1562C12.0133 12.1653 12.0703 12.1906 12.1199 12.2323C12.1697 12.2736 12.2047 12.3253 12.2249 12.3869C12.2452 12.4485 12.2476 12.5107 12.2322 12.5738C12.2168 12.6366 12.186 12.6906 12.1398 12.7362H12.1328Z" fill="#8CC63F"/>
</g>
<path d="M9.59596 14.4773L9.95164 16.5005L8.12374 15.55C8.07422 15.5241 8.02139 15.5111 7.96553 15.5111C7.90937 15.5111 7.85653 15.5241 7.80701 15.55L5.98576 16.5141L6.32634 14.4839C6.3357 14.4287 6.33147 14.3746 6.31396 14.3215C6.29675 14.268 6.26776 14.2221 6.22761 14.1832L4.74512 12.7599L6.78739 12.4555C6.84294 12.4474 6.89306 12.4266 6.93835 12.3936C6.98334 12.3604 7.01837 12.3188 7.04282 12.2686L7.94832 10.4187L8.86921 12.2617C8.89427 12.3121 8.9293 12.3535 8.97489 12.3861C9.02018 12.419 9.0706 12.4392 9.12616 12.4471L11.1687 12.7345L9.70164 14.1762C9.65997 14.2146 9.63008 14.2605 9.61136 14.3136C9.59264 14.3668 9.58751 14.4214 9.59596 14.4773Z" fill="#8CC63F"/>
<mask id="mask1_1293_487" style="mask-type:luminance" maskUnits="userSpaceOnUse" x="0" y="0" width="16" height="7">
<path d="M0 0.94751H16V6.20355H0V0.94751Z" fill="white"/>
</mask>
<g mask="url(#mask1_1293_487)">
<path d="M16 0.972412V6.18709H0V0.972412H5.3907V3.35285C5.3907 3.4084 5.39342 3.46396 5.39885 3.51951C5.40429 3.57477 5.41244 3.62972 5.42331 3.68437C5.43418 3.73902 5.44777 3.79306 5.46407 3.8462C5.48007 3.89965 5.49909 3.95188 5.52023 4.00351C5.54167 4.05484 5.56552 4.10526 5.59179 4.15418C5.61806 4.20339 5.64674 4.2511 5.67754 4.29729C5.70864 4.34349 5.74185 4.38817 5.77717 4.43135C5.8125 4.47453 5.84994 4.51559 5.88919 4.55484C5.92874 4.59439 5.96981 4.63183 6.01298 4.66716C6.05616 4.70248 6.10085 4.73539 6.14734 4.76649C6.19354 4.79729 6.24124 4.82597 6.29046 4.85224C6.33967 4.87851 6.3901 4.90236 6.44142 4.9235C6.49306 4.94494 6.54529 4.96366 6.59873 4.97966C6.65217 4.99596 6.70622 5.00955 6.76087 5.02042C6.81552 5.03129 6.87047 5.03944 6.92603 5.04488C6.98158 5.05031 7.03714 5.05303 7.093 5.05303H8.90731C8.96316 5.05303 9.01872 5.05031 9.07428 5.04488C9.12953 5.03944 9.18478 5.03129 9.23943 5.02042C9.29408 5.00955 9.34813 4.99596 9.40157 4.97966C9.45471 4.96366 9.50725 4.94494 9.55857 4.9235C9.6102 4.90236 9.66063 4.87851 9.70984 4.85224C9.75876 4.82597 9.80676 4.79729 9.85296 4.76649C9.89946 4.73539 9.94414 4.70248 9.98702 4.66716C10.0302 4.63183 10.0716 4.59439 10.1108 4.55484C10.1504 4.51559 10.1878 4.47453 10.2231 4.43135C10.2585 4.38817 10.2917 4.34349 10.3225 4.29729C10.3536 4.2511 10.3822 4.20339 10.4085 4.15418C10.4348 4.10496 10.4586 4.05484 10.4798 4.00351C10.5012 3.95188 10.5199 3.89965 10.5362 3.8462C10.5522 3.79306 10.5658 3.73902 10.5767 3.68437C10.5876 3.62972 10.5957 3.57477 10.6011 3.51951C10.6066 3.46396 10.6096 3.4084 10.6096 3.35285V0.972412H16Z" fill="#8CC63F"/>
</g>
</svg>
