<svg width="22" height="23" viewBox="0 0 22 23" fill="none" xmlns="http://www.w3.org/2000/svg">
<path d="M12.4329 2.68093C12.643 2.68093 12.8131 2.51079 12.8131 2.30102V0.380448C12.8131 0.169867 12.643 0 12.4329 0C12.2226 0 12.0527 0.169867 12.0527 0.380448V2.30102C12.0527 2.51079 12.2226 2.68093 12.4329 2.68093Z" fill="#8CC63F"/>
<path d="M7.28669 3.57527C7.36084 3.67665 7.47597 3.73112 7.59326 3.73112C7.67119 3.73112 7.75019 3.70658 7.81786 3.65724C7.98719 3.53321 8.02359 3.29513 7.89956 3.1258L6.7628 1.57732C6.63877 1.40826 6.40096 1.37105 6.23136 1.49562C6.06177 1.61965 6.0259 1.85773 6.14993 2.02679L7.28669 3.57527Z" fill="#8CC63F"/>
<path d="M16.9646 3.12592C16.8401 3.29525 16.8765 3.53333 17.046 3.65736C17.1137 3.7067 17.1925 3.73124 17.2704 3.73124C17.3874 3.73124 17.5031 3.67731 17.5775 3.57539L18.714 2.02691C18.8385 1.85785 18.8016 1.61977 18.6326 1.49574C18.4624 1.3709 18.2249 1.40838 18.1011 1.57743" fill="#8CC63F"/>
<path d="M7.55726 7.07842C7.55888 7.08004 7.56077 7.08139 7.56292 7.08355L9.66927 8.86203C9.71861 8.90328 9.75879 8.95343 9.80247 9.00089C9.83374 9.01491 9.86556 9.02758 9.89306 9.05023C10.0492 9.18181 10.2492 9.24328 10.4539 9.22764C10.6596 9.21012 10.8457 9.1144 10.977 8.95855C11.1191 8.81511 11.1808 8.64659 11.1733 8.46055C11.1641 8.23702 11.0568 8.01781 10.8856 7.87437L9.81838 6.97273C9.8173 6.97219 9.81649 6.97219 9.81622 6.97138L8.27744 5.6715C7.95362 5.39809 7.46693 5.43935 7.19245 5.76452C6.91905 6.08834 6.96057 6.5753 7.28493 6.84951L7.55726 7.07842Z" fill="#8CC63F"/>
<path d="M11.5482 7.47291C11.7769 7.73931 11.9168 8.07392 11.9317 8.42902C11.9486 8.8305 11.8076 9.20124 11.5348 9.47249C11.2945 9.75991 10.9251 9.95081 10.5169 9.98532C10.473 9.9891 10.4282 9.99126 10.3845 9.99126C10.3295 9.99126 10.2759 9.9829 10.2217 9.97696C10.2222 9.98344 10.2246 9.98964 10.2249 9.99611C10.2424 10.397 10.1025 10.7686 9.8307 11.0415C9.54462 11.3798 9.12778 11.5559 8.70338 11.5602C8.76701 11.9809 8.66293 12.4252 8.36877 12.7755C8.15549 13.027 7.87696 13.1877 7.57929 13.2638C7.67447 13.4441 7.73487 13.6431 7.75213 13.8529C7.78637 14.2608 7.66018 14.6569 7.39729 14.9675C7.13575 15.2782 6.76663 15.4685 6.35868 15.5028C6.31419 15.5065 6.26997 15.5087 6.22629 15.5087C5.86633 15.5087 5.52148 15.383 5.24322 15.1493L4.06008 14.1522L0 17.7736L4.18385 22.3643L9.75089 17.024C9.84014 16.9464 9.96066 16.914 10.0742 16.9388C10.8537 17.0938 11.5108 17.2012 12.1279 17.1577C12.1344 17.1569 12.1398 17.1564 12.1463 17.1564C12.8473 17.1041 13.4963 16.8563 14.2116 16.2531L18.0595 12.7657C18.0595 12.7657 18.5737 12.2942 18.2035 11.8765C18.0053 11.6524 17.7648 11.4899 17.499 11.4052C17.9037 10.8492 17.8948 10.0665 17.4318 9.51859C17.2334 9.28267 16.9735 9.11577 16.6823 9.0338C17.005 8.48996 16.9665 7.77625 16.5361 7.26476C16.2983 6.98327 15.9734 6.80127 15.6116 6.74303C15.7728 6.25419 15.7302 5.65237 15.3301 5.27489C14.9262 4.89417 14.2823 5.27975 14.2823 5.27975L11.5482 7.47291Z" fill="#8CC63F"/>
<path d="M14.7118 16.8255C14.1289 17.3178 13.575 17.6126 13.0215 17.7708L18.2547 22.3494L21.9438 17.7762L17.7713 14.0537L14.7118 16.8255Z" fill="#8CC63F"/>
<path d="M9.99236 5.23594C9.80793 5.5115 9.75832 5.927 10.028 6.15456C10.0288 6.15537 10.029 6.15591 10.0298 6.15672L10.977 6.95644L12.5433 5.70051L11.0941 5.02401C10.4486 4.68967 10.1088 5.06095 9.99236 5.23594Z" fill="#8CC63F"/>
<path d="M5.18311 11.0934L5.89385 11.6928H5.89412C5.89601 11.6944 5.89628 11.6971 5.89817 11.6988L6.70355 12.378C7.02872 12.65 7.5146 12.6077 7.788 12.2849C8.0606 11.9608 8.01961 11.4739 7.69498 11.1999L6.17939 9.91894C6.17831 9.91813 6.17696 9.91813 6.17535 9.91759L6.17373 9.91543C6.01788 9.78439 5.81755 9.72318 5.61425 9.73936C5.40852 9.75635 5.22247 9.85234 5.09035 10.0085C4.81776 10.3325 4.85901 10.8192 5.18311 11.0934Z" fill="#8CC63F"/>
<path d="M5.98658 7.75562C5.85527 7.91201 5.79218 8.11127 5.80944 8.3178C5.82669 8.52353 5.92241 8.70903 6.07826 8.83981L6.65742 9.32945C6.65931 9.3308 6.66066 9.3308 6.66174 9.33215L8.18568 10.6194C8.5087 10.892 8.99727 10.8512 9.27175 10.5269C9.41277 10.384 9.47451 10.2149 9.46615 10.0289C9.45645 9.80562 9.3494 9.58695 9.17873 9.44324L7.07319 7.66503H7.07265L7.06915 7.66206C6.7437 7.39055 6.25999 7.43234 5.98658 7.75562Z" fill="#8CC63F"/>
<path d="M4.41007 13.4524L5.73287 14.5676C5.88953 14.6994 6.08609 14.7615 6.29424 14.7453C6.49943 14.7275 6.68467 14.6318 6.81598 14.4767C6.94863 14.3195 7.01173 14.1211 6.99447 13.9151C6.97721 13.7091 6.8815 13.5233 6.72565 13.3917L6.21389 12.9606C6.21308 12.9601 6.21227 12.9601 6.21174 12.9593C6.2112 12.9584 6.2112 12.9584 6.21093 12.9579L5.39206 12.2674C5.06851 12.0034 4.58856 12.0463 4.31732 12.3674C4.04418 12.691 4.08544 13.1774 4.41007 13.4524Z" fill="#8CC63F"/>
</svg>
