<svg width="21" height="23" viewBox="0 0 21 23" fill="none" xmlns="http://www.w3.org/2000/svg">
<path d="M9.9039 6.18514C10.0569 6.00185 10.2732 5.89744 10.5 5.89744C10.7268 5.89744 10.9431 6.00185 11.0961 6.18514L15.4038 11.3454C15.7048 11.706 15.6819 12.2655 15.3527 12.5952C15.0235 12.9248 14.5126 12.8998 14.2116 12.5392L11.3077 9.06059L11.3077 22.1154C11.3077 22.6039 10.9461 23 10.5 23C10.0539 23 9.69231 22.6039 9.69231 22.1154L9.6923 9.06059L6.78841 12.5392C6.48741 12.8998 5.97652 12.9248 5.6473 12.5952C5.31808 12.2655 5.29521 11.706 5.5962 11.3454L9.9039 6.18514Z" fill="#8CC63F"/>
<path d="M19.3846 7.96154C19.3846 8.4501 19.7462 8.84616 20.1923 8.84616C20.6384 8.84616 21 8.4501 21 7.96154L21 7.89682C21 6.28377 21 4.98359 20.8745 3.96102C20.7442 2.89935 20.4654 2.00545 19.8172 1.29549C19.1689 0.585541 18.3528 0.280178 17.3834 0.137442C16.4498 -4.15639e-05 15.2626 -2.04793e-05 13.7899 4.44503e-06L7.21014 5.02025e-06C5.73735 -1.96465e-05 4.55023 -4.05236e-05 3.61657 0.137443C2.64723 0.28018 1.83105 0.585542 1.18283 1.2955C0.534618 2.00545 0.255808 2.89935 0.125485 3.96102C-4.35367e-05 4.98359 -2.43496e-05 6.28377 -1.32036e-06 7.89683L-1.3147e-06 7.96154C-1.27199e-06 8.4501 0.361615 8.84616 0.80769 8.84616C1.25377 8.84616 1.61538 8.4501 1.61538 7.96154C1.61538 6.26849 1.6171 5.08769 1.72646 4.19676C1.83271 3.33128 2.02703 2.87297 2.32508 2.54653C2.62314 2.22009 3.0416 2.00726 3.83182 1.8909C4.64527 1.77111 5.7234 1.76924 7.26923 1.76923L13.7308 1.76923C15.2766 1.76923 16.3547 1.77111 17.1682 1.8909C17.9584 2.00726 18.3769 2.22009 18.6749 2.54653C18.973 2.87297 19.1673 3.33128 19.2735 4.19676C19.3829 5.08769 19.3846 6.26849 19.3846 7.96154Z" fill="#8CC63F"/>
</svg>
