<svg width="19" height="16" viewBox="0 0 19 16" fill="none" xmlns="http://www.w3.org/2000/svg">
<path fill-rule="evenodd" clip-rule="evenodd" d="M17.4633 5.00309C17.4137 4.99996 17.3597 4.99998 17.3037 5L17.2898 5.00001H15.0948C13.2856 5.00001 11.7376 6.42412 11.7376 8.28126C11.7376 10.1384 13.2856 11.5625 15.0948 11.5625H17.2898L17.3037 11.5625C17.3597 11.5625 17.4137 11.5626 17.4633 11.5594C18.1982 11.513 18.8481 10.9379 18.9027 10.1347C18.9063 10.082 18.9063 10.0252 18.9062 9.97262L18.9062 9.95834V6.60417L18.9062 6.58989C18.9063 6.53727 18.9063 6.48049 18.9027 6.42782C18.8481 5.62458 18.1982 5.0495 17.4633 5.00309ZM14.9002 9.15625C15.366 9.15625 15.7436 8.7645 15.7436 8.28125C15.7436 7.798 15.366 7.40625 14.9002 7.40625C14.4344 7.40625 14.0568 7.798 14.0568 8.28125C14.0568 8.7645 14.4344 9.15625 14.9002 9.15625Z" fill="#8CC63F"/>
<path fill-rule="evenodd" clip-rule="evenodd" d="M17.3032 12.875C17.4336 12.8716 17.5324 12.9925 17.497 13.1181C17.3213 13.7415 17.0425 14.2728 16.5952 14.7202C15.9403 15.375 15.11 15.6656 14.0841 15.8035C13.0873 15.9375 11.8137 15.9375 10.2056 15.9375H8.35689C6.74885 15.9375 5.47517 15.9375 4.47836 15.8035C3.45249 15.6656 2.62216 15.375 1.96734 14.7202C1.31252 14.0653 1.02192 13.235 0.883993 12.2091C0.749975 11.2123 0.749986 9.93866 0.75 8.33061V8.23189C0.749986 6.62385 0.749975 5.35017 0.883993 4.35336C1.02192 3.32749 1.31252 2.49716 1.96734 1.84234C2.62216 1.18752 3.45249 0.896918 4.47836 0.758994C5.47517 0.624976 6.74885 0.624987 8.35688 0.625L10.2056 0.625C11.8137 0.624986 13.0873 0.624975 14.0841 0.758993C15.11 0.896918 15.9403 1.18752 16.5952 1.84234C17.0425 2.28971 17.3213 2.82103 17.497 3.44441C17.5324 3.57004 17.4336 3.69089 17.3032 3.6875L15.0948 3.68751C12.6127 3.68751 10.425 5.6483 10.425 8.28126C10.425 10.9142 12.6127 12.875 15.0948 12.875L17.3032 12.875ZM5.125 11.5625C4.76256 11.5625 4.46875 11.2687 4.46875 10.9062V5.65625C4.46875 5.29381 4.76256 5 5.125 5C5.48744 5 5.78125 5.29381 5.78125 5.65625V10.9062C5.78125 11.2687 5.48744 11.5625 5.125 11.5625Z" fill="#8CC63F"/>
</svg>
