<svg width="14" height="21" viewBox="0 0 14 21" fill="none" xmlns="http://www.w3.org/2000/svg">
<mask id="mask0_1237_14858" style="mask-type:luminance" maskUnits="userSpaceOnUse" x="0" y="0" width="14" height="21">
<path d="M0 0H14V20.9273H0V0Z" fill="white"/>
</mask>
<g mask="url(#mask0_1237_14858)">
<path d="M0 13.9128C0 8.83061 5.33881 5.45626 6.91699 0.383376C6.92835 0.347044 7.0106 0.00390625 7.0106 0.00390625C7.0106 0.00390625 7.0926 0.347296 7.10445 0.383376C8.77296 5.45626 14.0214 8.83061 14.0214 13.9128C14.0214 17.785 10.8825 20.9237 7.0106 20.9237C3.1387 20.9237 0 17.785 0 13.9128Z" fill="#8CC63F"/>
</g>
<path d="M13 13.8474C13 16.9337 10.8291 19.4888 8 19.9272C10.4633 18.8549 12.212 16.1452 12.212 12.9717C12.212 11.515 11.8544 10.1907 11.3016 8.92725C12.2656 10.4531 13 12.0251 13 13.8474Z" fill="white"/>
</svg>
